<svg xmlns="http://www.w3.org/2000/svg" viewBox="0 0 700 500"><g id="freepik--background-simple--inject-31"><path d="M662.46,362.93s34.18-130.26-.92-199.54S546.07,52.53,465.7,52.53s-80.37,25-141.34,48S220,70.09,149.76,81.17,25.05,121.82,22.28,180.94,50,271.47,53.69,306.58s-28.64,49-20.33,98.84,29.57,55.43,29.57,55.43H677.24s21.25-26.79.93-55.43S662.46,362.93,662.46,362.93Z" style="fill:#90CAF9"></path><path d="M662.46,362.93s34.18-130.26-.92-199.54S546.07,52.53,465.7,52.53s-80.37,25-141.34,48S220,70.09,149.76,81.17,25.05,121.82,22.28,180.94,50,271.47,53.69,306.58s-28.64,49-20.33,98.84,29.57,55.43,29.57,55.43H677.24s21.25-26.79.93-55.43S662.46,362.93,662.46,362.93Z" style="fill:#fff;opacity:0.7000000000000001"></path></g><g id="freepik--Wall--inject-31"><line x1="469.37" y1="87.65" x2="469.37" y2="77.39" style="fill:#fff;stroke:#263238;stroke-linecap:round;stroke-linejoin:round"></line><line x1="469.37" y1="460.18" x2="469.37" y2="96.66" style="fill:#fff;stroke:#263238;stroke-linecap:round;stroke-linejoin:round"></line></g><g id="freepik--Picture--inject-31"><rect x="481" y="93" width="45" height="72" style="fill:none;stroke:#263238;stroke-linecap:round;stroke-linejoin:round"></rect><rect x="484.75" y="99" width="37.5" height="60" style="fill:none;stroke:#263238;stroke-linecap:round;stroke-linejoin:round"></rect><rect x="495.38" y="116" width="16.25" height="26" style="fill:none;stroke:#263238;stroke-linecap:round;stroke-linejoin:round"></rect></g><g id="freepik--Plants--inject-31"><path d="M600,154.1s-15.79-8.77-17,11.1S579,409.27,579,409.27" style="fill:none;stroke:#263238;stroke-linecap:round;stroke-linejoin:round;stroke-width:2px"></path><path d="M574.86,167s12.87,123.66,7,240.57" style="fill:none;stroke:#263238;stroke-linecap:round;stroke-linejoin:round;stroke-width:2px"></path><path d="M587.51,158.1s-6,3.86-9.48-.56,2.33-12.54-2.75-16-13.84,1.83-13.84,1.83,6.75,2,6.53,5.66-3.46,5.08-3.9,3.47-3.65-9.72-9.13-6.35a13.54,13.54,0,0,0-6.31,8.61s12.75-1.36,13.52,3.43-5.23-.83-10.49-1.14-10.06.46-9.72,3.65a41.44,41.44,0,0,1-.5,8.42s4.46-4,10.25-3.62,5.57,4,.31,3.71-9.78,4.71-9.78,4.71,4.79,8.2,10.89,12.26,8.3,2.6,9-.53-.93-11.14,2.75-10.92-6.1,13.89-1.39,14.7,8.48-.56,9.72-3.65l1.24-3.1s-1.64-8-.93-11.14,1.58.09,2.42,3.84,1.36,12.75,3,12.32,6.74-7,8-9.57-6.77-10.43-6.68-12,6.25,1.43,7.21,3.07a40.85,40.85,0,0,1,1.89,3.81s3.84-2.42,3.75-9.82S587.51,158.1,587.51,158.1Z" style="fill:#90CAF9"></path><path d="M587.51,158.1s-6,3.86-9.48-.56,2.33-12.54-2.75-16-13.84,1.83-13.84,1.83,6.75,2,6.53,5.66-3.46,5.08-3.9,3.47-3.65-9.72-9.13-6.35a13.54,13.54,0,0,0-6.31,8.61s12.75-1.36,13.52,3.43-5.23-.83-10.49-1.14-10.06.46-9.72,3.65a41.44,41.44,0,0,1-.5,8.42s4.46-4,10.25-3.62,5.57,4,.31,3.71-9.78,4.71-9.78,4.71,4.79,8.2,10.89,12.26,8.3,2.6,9-.53-.93-11.14,2.75-10.92-6.1,13.89-1.39,14.7,8.48-.56,9.72-3.65l1.24-3.1s-1.64-8-.93-11.14,1.58.09,2.42,3.84,1.36,12.75,3,12.32,6.74-7,8-9.57-6.77-10.43-6.68-12,6.25,1.43,7.21,3.07a40.85,40.85,0,0,1,1.89,3.81s3.84-2.42,3.75-9.82S587.51,158.1,587.51,158.1Z" style="fill:#263238;opacity:0.30000000000000004"></path><path d="M556.9,175.44c3.94-4.86,9.74-11.45,14.6-14.59" style="fill:none;stroke:#263238;stroke-linecap:round;stroke-linejoin:round"></path><path d="M552.34,181.37s1-1.41,2.65-3.51" style="fill:none;stroke:#263238;stroke-linecap:round;stroke-linejoin:round"></path><path d="M574.07,162.06s5.85,8.26,6.93,16.77" style="fill:none;stroke:#263238;stroke-linecap:round;stroke-linejoin:round"></path><path d="M567.45,167s1.64-1,1,9.56" style="fill:none;stroke:#263238;stroke-linecap:round;stroke-linejoin:round"></path><path d="M571.72,157.16s3.34-3,1.58-8.88" style="fill:none;stroke:#263238;stroke-linecap:round;stroke-linejoin:round"></path><line x1="567.2" y1="162.18" x2="564.82" y2="157.81" style="fill:none;stroke:#263238;stroke-linecap:round;stroke-linejoin:round"></line><path d="M562.18,166.64s-7.58-5.73-12.32-6" style="fill:none;stroke:#263238;stroke-linecap:round;stroke-linejoin:round"></path><path d="M609,142.5s-.24,8.68-7,9.1-11-10.87-17.9-8.15-7.61,15.1-7.61,15.1,6.59-5.41,10.13-2.68,2.71,6.93.81,6.27-12.22-3-12.58,4.81a16.42,16.42,0,0,0,4.31,12.19s7.33-13.69,12.66-11.2-4.4,4.67-8.3,9.73-6.39,10.39-3,12.22,8.09,6.23,8.09,6.23S587.72,189,592,183.4s7.83-2.84,3.93,2.22-2,13-2,13,11.49.79,19.7-2.55,8.26-6.53,5.62-9.38-11.79-6.66-9.06-10.2S620,192.07,624,187.91s5.22-8.88,3-12.23l-2.26-3.35s-9.14-3.82-11.79-6.66,1.17-1.52,5.49.2,13.7,7.33,14.36,5.42-2.4-11.52-4.15-14.49-15.07-.32-16.58-1.49,5.69-5.29,8-5.13a50.87,50.87,0,0,1,5.1.7s.2-5.48-7.27-10.44S609,142.5,609,142.5Z" style="fill:#90CAF9"></path><path d="M609,142.5s-.24,8.68-7,9.1-11-10.87-17.9-8.15-7.61,15.1-7.61,15.1,6.59-5.41,10.13-2.68,2.71,6.93.81,6.27-12.22-3-12.58,4.81a16.42,16.42,0,0,0,4.31,12.19s7.33-13.69,12.66-11.2-4.4,4.67-8.3,9.73-6.39,10.39-3,12.22,8.09,6.23,8.09,6.23S587.72,189,592,183.4s7.83-2.84,3.93,2.22-2,13-2,13,11.49.79,19.7-2.55,8.26-6.53,5.62-9.38-11.79-6.66-9.06-10.2S620,192.07,624,187.91s5.22-8.88,3-12.23l-2.26-3.35s-9.14-3.82-11.79-6.66,1.17-1.52,5.49.2,13.7,7.33,14.36,5.42-2.4-11.52-4.15-14.49-15.07-.32-16.58-1.49,5.69-5.29,8-5.13a50.87,50.87,0,0,1,5.1.7s.2-5.48-7.27-10.44S609,142.5,609,142.5Z" style="fill:#263238;opacity:0.2"></path><path d="M605.53,185c-2.19-7.26-4.83-17.56-4.66-24.57" style="fill:none;stroke:#263238;stroke-linecap:round;stroke-linejoin:round"></path><path d="M608.35,193.57s-.72-2-1.71-5" style="fill:none;stroke:#263238;stroke-linecap:round;stroke-linejoin:round"></path><path d="M603.83,158.65s12.26-.22,21.52,4.5" style="fill:none;stroke:#263238;stroke-linecap:round;stroke-linejoin:round"></path><path d="M604.21,168.62s.16-2.3,10.27,5.49" style="fill:none;stroke:#263238;stroke-linecap:round;stroke-linejoin:round"></path><path d="M597.33,157.67s-.7-5.37-7.82-7.64" style="fill:none;stroke:#263238;stroke-linecap:round;stroke-linejoin:round"></path><line x1="599.27" y1="165.61" x2="593.27" y2="165.02" style="fill:none;stroke:#263238;stroke-linecap:round;stroke-linejoin:round"></line><path d="M600.31,173.67s-10.9,3.69-14.41,8.24" style="fill:none;stroke:#263238;stroke-linecap:round;stroke-linejoin:round"></path><path d="M536.29,200.27s34.49,117.82,33.91,206.08" style="fill:none;stroke:#263238;stroke-linecap:round;stroke-linejoin:round;stroke-width:2px"></path><path d="M578.81,194.25s-1.09,10-8.95,9.84S558.23,190.51,550,193s-10.2,16.7-10.2,16.7,8.11-5.62,11.94-2.13,2.48,8.25.34,7.31-13.82-4.59-15,4.36a19.06,19.06,0,0,0,3.83,14.48s9.75-15.12,15.67-11.73-5.53,5-10.5,10.44-8.36,11.38-4.58,13.82,8.75,8,8.75,8-.4-8.36,5.07-14.37,9.3-2.53,4.33,2.94-3.49,14.81-3.49,14.81,13.18,2,23-1.08,10.14-6.76,7.36-10.29-13-8.81-9.49-12.64,9.78,18.9,14.81,14.48,6.87-9.74,4.58-13.82l-2.29-4.08s-10.19-5.28-13-8.81,1.49-1.64,6.31.75,15.12,9.75,16.06,7.62-1.68-13.53-3.42-17.11-17.35-1.8-19-3.29,7.06-5.57,9.69-5.17a56.89,56.89,0,0,1,5.82,1.3s.75-6.32-7.4-12.74S578.81,194.25,578.81,194.25Z" style="fill:#90CAF9"></path><path d="M578.81,194.25s-1.09,10-8.95,9.84S558.23,190.51,550,193s-10.2,16.7-10.2,16.7,8.11-5.62,11.94-2.13,2.48,8.25.34,7.31-13.82-4.59-15,4.36a19.06,19.06,0,0,0,3.83,14.48s9.75-15.12,15.67-11.73-5.53,5-10.5,10.44-8.36,11.38-4.58,13.82,8.75,8,8.75,8-.4-8.36,5.07-14.37,9.3-2.53,4.33,2.94-3.49,14.81-3.49,14.81,13.18,2,23-1.08,10.14-6.76,7.36-10.29-13-8.81-9.49-12.64,9.78,18.9,14.81,14.48,6.87-9.74,4.58-13.82l-2.29-4.08s-10.19-5.28-13-8.81,1.49-1.64,6.31.75,15.12,9.75,16.06,7.62-1.68-13.53-3.42-17.11-17.35-1.8-19-3.29,7.06-5.57,9.69-5.17a56.89,56.89,0,0,1,5.82,1.3s.75-6.32-7.4-12.74S578.81,194.25,578.81,194.25Z" style="fill:#263238;opacity:0.30000000000000004"></path><path d="M570.78,242.93c-1.84-8.59-3.92-20.72-3.06-28.79" style="fill:none;stroke:#263238;stroke-linecap:round;stroke-linejoin:round"></path><path d="M573.22,253.12s-.64-2.34-1.5-6" style="fill:none;stroke:#263238;stroke-linecap:round;stroke-linejoin:round"></path><path d="M571.3,212.4s14.17.9,24.41,7.22" style="fill:none;stroke:#263238;stroke-linecap:round;stroke-linejoin:round"></path><path d="M570.8,223.93s.39-2.63,11.33,7.32" style="fill:none;stroke:#263238;stroke-linecap:round;stroke-linejoin:round"></path><path d="M563.89,210.65s-.3-6.26-8.3-9.55" style="fill:none;stroke:#263238;stroke-linecap:round;stroke-linejoin:round"></path><line x1="565.38" y1="220" x2="558.52" y2="218.76" style="fill:none;stroke:#263238;stroke-linecap:round;stroke-linejoin:round"></line><path d="M565.82,229.4s-12.93,3.23-17.41,8.15" style="fill:none;stroke:#263238;stroke-linecap:round;stroke-linejoin:round"></path><path d="M578.81,280s-1.09,10-8.95,9.84-11.63-13.58-19.89-11.1-10.2,16.7-10.2,16.7,8.11-5.61,11.94-2.13,2.48,8.26.34,7.31-13.82-4.58-15,4.37a19,19,0,0,0,3.83,14.47s9.75-15.11,15.67-11.73-5.53,5-10.5,10.44-8.36,11.38-4.58,13.82,8.75,8,8.75,8-.4-8.35,5.07-14.37,9.3-2.53,4.33,2.94-3.49,14.82-3.49,14.82,13.18,2,23-1.09,10.14-6.76,7.36-10.29-13-8.8-9.49-12.63,9.78,18.9,14.81,14.48,6.87-9.75,4.58-13.83l-2.29-4.08s-10.19-5.27-13-8.8,1.49-1.64,6.31.75,15.12,9.75,16.06,7.61-1.68-13.52-3.42-17.11-17.35-1.79-19-3.29,7.06-5.56,9.69-5.16a58.21,58.21,0,0,1,5.82,1.29s.75-6.31-7.4-12.73S578.81,280,578.81,280Z" style="fill:#90CAF9"></path><path d="M578.81,280s-1.09,10-8.95,9.84-11.63-13.58-19.89-11.1-10.2,16.7-10.2,16.7,8.11-5.61,11.94-2.13,2.48,8.26.34,7.31-13.82-4.58-15,4.37a19,19,0,0,0,3.83,14.47s9.75-15.11,15.67-11.73-5.53,5-10.5,10.44-8.36,11.38-4.58,13.82,8.75,8,8.75,8-.4-8.35,5.07-14.37,9.3-2.53,4.33,2.94-3.49,14.82-3.49,14.82,13.18,2,23-1.09,10.14-6.76,7.36-10.29-13-8.8-9.49-12.63,9.78,18.9,14.81,14.48,6.87-9.75,4.58-13.83l-2.29-4.08s-10.19-5.27-13-8.8,1.49-1.64,6.31.75,15.12,9.75,16.06,7.61-1.68-13.52-3.42-17.11-17.35-1.79-19-3.29,7.06-5.56,9.69-5.16a58.21,58.21,0,0,1,5.82,1.29s.75-6.31-7.4-12.73S578.81,280,578.81,280Z" style="fill:#263238;opacity:0.30000000000000004"></path><path d="M570.78,328.67c-1.84-8.58-3.92-20.71-3.06-28.79" style="fill:none;stroke:#263238;stroke-linecap:round;stroke-linejoin:round"></path><path d="M573.22,338.87s-.64-2.34-1.5-6" style="fill:none;stroke:#263238;stroke-linecap:round;stroke-linejoin:round"></path><path d="M571.3,298.14s14.17.9,24.41,7.22" style="fill:none;stroke:#263238;stroke-linecap:round;stroke-linejoin:round"></path><path d="M570.8,309.68s.39-2.64,11.33,7.31" style="fill:none;stroke:#263238;stroke-linecap:round;stroke-linejoin:round"></path><path d="M563.89,296.4s-.3-6.27-8.3-9.55" style="fill:none;stroke:#263238;stroke-linecap:round;stroke-linejoin:round"></path><line x1="565.38" y1="305.75" x2="558.52" y2="304.5" style="fill:none;stroke:#263238;stroke-linecap:round;stroke-linejoin:round"></line><path d="M565.82,315.15s-12.93,3.22-17.41,8.14" style="fill:none;stroke:#263238;stroke-linecap:round;stroke-linejoin:round"></path><path d="M549.74,269.83s22.21,112,24.55,137.1l-4.68-179.18" style="fill:none;stroke:#263238;stroke-linecap:round;stroke-linejoin:round;stroke-width:2px"></path><path d="M603.51,257.56c-29.22-5.26-29.22,149.37-29.22,149.37" style="fill:none;stroke:#263238;stroke-linecap:round;stroke-linejoin:round;stroke-width:2px"></path><path d="M577.79,406.35S560.84,188,609.94,188" style="fill:none;stroke:#263238;stroke-linecap:round;stroke-linejoin:round;stroke-width:2px"></path><path d="M592.38,254c-4-4.49-12.48-4.49-17.47,7s-.5,9.48-.5,9.48,9.48-3,15.47-5,14-7,14.47-4-4,6-9.48,7-20,5-18.46,8,5,12,5,12a127.36,127.36,0,0,1,13.47-10c6.49-4,10.48-2.5,7,2s-13.47,9.48-11.48,15.47,14,13.48,14,13.48,1.5-12.48,5-16.47,3.5.5,2.5,7.48a81.19,81.19,0,0,0-1,9l14,5s5-7.49,7.49-10l2.5-2.5s-11-9.48-11.48-15.47,7.48,0,10,1,6.49,8,6.49,8,2.49-11.48,3-15.47l.5-4s-10.48-4-14.47-4-6,3-6-1,4-6.49,8.48-6,12,3,12,3,3-2.5,2-10-3.5-7.48-9.49-5.48-10,6.48-14.47,6.48-2-5.49,1-7,10.48-4.49,12-5-8-7.49-13-8.49-11.45,2.52-11,7.49C611.34,256.51,596.37,258.5,592.38,254Z" style="fill:#90CAF9"></path><path d="M624.5,305.39c.15,1.51.26,3,.31,4.51" style="fill:none;stroke:#263238;stroke-linecap:round;stroke-linejoin:round"></path><path d="M614.48,269.57a132.74,132.74,0,0,1,9.39,30.92" style="fill:none;stroke:#263238;stroke-linecap:round;stroke-linejoin:round"></path><path d="M612.68,265.56c-2.47-5.31-4.33-8.55-4.33-8.55s4.49-2,6.48-6a16.71,16.71,0,0,1,5-6" style="fill:none;stroke:#263238;stroke-linecap:round;stroke-linejoin:round"></path><path d="M590.88,274s18-7.48,18-6" style="fill:none;stroke:#263238;stroke-linecap:round;stroke-linejoin:round"></path><path d="M618.83,264.49s8-4,15-4" style="fill:none;stroke:#263238;stroke-linecap:round;stroke-linejoin:round"></path><path d="M615.83,276.47a68.94,68.94,0,0,0-9.48,9.48,43.09,43.09,0,0,0-7,11.48" style="fill:none;stroke:#263238;stroke-linecap:round;stroke-linejoin:round"></path><path d="M621.32,278.47s10.48-3,16,2" style="fill:none;stroke:#263238;stroke-linecap:round;stroke-linejoin:round"></path><path d="M640.3,211c-5.43-3.22-11.44-3.29-14.38-6.68s2.83-5.11,5.93-3.83,10.26,5,11.62,5.78.42-10.94-2.1-15.36-9.41-7-12.85-3.39c-7.26,7.63-18.58-2.37-17.81-8.33s-4.79-12.36-16.72-8.61-7.49,5.84-7.49,5.84,8.48,5.2,13.91,8.41,14.43,6,12.5,8.31-7.14.91-11.49-2.58-16.85-11.8-18.13-8.7-5.78,11.62-5.78,11.62a127.31,127.31,0,0,1,16.37,3.63c7.27,2.28,8.76,6.27,3.08,6.58s-16-4-19.21,1.48-1,19.38-1,19.38,10.41-7.05,15.71-7,1.91,3-4,6.79a79.9,79.9,0,0,0-7.43,5.14l5.39,13.82s8.92-1.14,12.44-.89l3.52.25s0-14.51,4.16-18.81,4.91,5.65,5.79,8.19-1.78,10.14-1.78,10.14,10.31-5.64,13.65-7.89l3.34-2.24s-3.86-10.53-6.47-13.54-6.19-2.56-3.17-5.18,7.51-1.24,10.08,2.48,5.59,11,5.59,11,3.85.63,8.85-5S645.74,214.25,640.3,211Zm-47.22,16c-4-2,5.49-6,5.49-6C602.06,220.52,597.07,229,593.08,227Zm6.72-18.63c-1.7-.85,3.4-2.55,3.4-2.55C610.58,207.24,601.5,209.23,599.8,208.38Z" style="fill:#90CAF9"></path><path d="M593,237.17c-1,1.1-2.1,2.17-3.2,3.2" style="fill:none;stroke:#263238;stroke-linecap:round;stroke-linejoin:round"></path><path d="M613.45,206.12a131.89,131.89,0,0,1-17.19,27.36" style="fill:none;stroke:#263238;stroke-linecap:round;stroke-linejoin:round"></path><path d="M615.3,202.14c2.39-5.36,3.62-8.89,3.62-8.89s4.45,2.09,8.77,1a16.67,16.67,0,0,1,7.8-.16" style="fill:none;stroke:#263238;stroke-linecap:round;stroke-linejoin:round"></path><path d="M611,200.83c1.13-1-16.3-9.64-16.3-9.64" style="fill:none;stroke:#263238;stroke-linecap:round;stroke-linejoin:round"></path><path d="M620.14,206.07s8.25,3.42,12.83,8.69" style="fill:none;stroke:#263238;stroke-linecap:round;stroke-linejoin:round"></path><path d="M609.13,211.67a68.53,68.53,0,0,0-13.38-.95A43,43,0,0,0,582.51,213" style="fill:none;stroke:#263238;stroke-linecap:round;stroke-linejoin:round"></path><path d="M611.22,217.12s9.13,5.95,9,13.37" style="fill:none;stroke:#263238;stroke-linecap:round;stroke-linejoin:round"></path><path d="M562.76,280.18c-4.37-2.58-9.21-2.64-11.58-5.37s2.29-4.11,4.77-3.08,8.26,4,9.36,4.65.33-8.8-1.69-12.36-7.57-5.63-10.34-2.73c-5.85,6.14-15-1.9-14.33-6.7s-3.86-10-13.46-6.93-6,4.7-6,4.7,6.82,4.18,11.19,6.77,11.62,4.8,10.07,6.69-5.75.73-9.25-2.08-13.57-9.5-14.6-7-4.64,9.35-4.64,9.35A102.24,102.24,0,0,1,525.4,269c5.85,1.83,7.05,5.05,2.47,5.3s-12.87-3.19-15.45,1.18-.82,15.6-.82,15.6,8.37-5.67,12.64-5.65,1.54,2.38-3.23,5.46a67.57,67.57,0,0,0-6,4.13l4.34,11.13a80,80,0,0,1,10-.72l2.83.2s0-11.67,3.35-15.14,4,4.55,4.66,6.6-1.43,8.15-1.43,8.15,8.29-4.54,11-6.34l2.69-1.8s-3.11-8.48-5.21-10.9-5-2.06-2.56-4.17,6-1,8.12,2a62.2,62.2,0,0,1,4.5,8.85s3.09.51,7.12-4.05S567.13,282.77,562.76,280.18Zm-38,12.86c-3.21-1.61,4.42-4.82,4.42-4.82C532,287.82,528,294.64,524.75,293Zm5.41-15c-1.37-.69,2.74-2.06,2.74-2.06C538.84,277.13,531.53,278.73,530.16,278.05Z" style="fill:#90CAF9"></path><path d="M524.67,301.22c-.84.88-1.69,1.74-2.58,2.57" style="fill:none;stroke:#263238;stroke-linecap:round;stroke-linejoin:round"></path><path d="M541.15,276.23a106.3,106.3,0,0,1-13.84,22" style="fill:none;stroke:#263238;stroke-linecap:round;stroke-linejoin:round"></path><path d="M542.64,273c1.92-4.31,2.91-7.15,2.91-7.15a11.87,11.87,0,0,0,7.06.79,13.29,13.29,0,0,1,6.27-.13" style="fill:none;stroke:#263238;stroke-linecap:round;stroke-linejoin:round"></path><path d="M526,264.21s14,7,13.11,7.76" style="fill:none;stroke:#263238;stroke-linecap:round;stroke-linejoin:round"></path><path d="M546.53,276.19s6.64,2.75,10.32,7" style="fill:none;stroke:#263238;stroke-linecap:round;stroke-linejoin:round"></path><path d="M537.67,280.69a55.23,55.23,0,0,0-10.76-.76,34.71,34.71,0,0,0-10.66,1.81" style="fill:none;stroke:#263238;stroke-linecap:round;stroke-linejoin:round"></path><path d="M539.36,285.08s7.34,4.79,7.21,10.76" style="fill:none;stroke:#263238;stroke-linecap:round;stroke-linejoin:round"></path><path d="M544.93,197.78s-5.49,4-9,0,1.5-12-3.49-15-13,2.49-13,2.49,6.49,1.5,6.49,5-3,5-3.49,3.5-4-9-9-5.49a12.84,12.84,0,0,0-5.49,8.48s12-2,13,2.49-5-.49-10-.49-9.48,1-9,4a39.21,39.21,0,0,1,0,8s4-4,9.49-4,5.49,3.49.5,3.49-9,5-9,5,5,7.49,11,11,8,2,8.49-1-1.5-10.48,2-10.48-5,13.48-.5,14,8-1,9-4l1-3s-2-7.48-1.49-10.48,1.49,0,2.49,3.49,2,12,3.49,11.48,6-7,7-9.48-7-9.48-7-11,6,1,7,2.5a37.83,37.83,0,0,1,2,3.49s3.49-2.49,3-9.48S544.93,197.78,544.93,197.78Z" style="fill:#90CAF9"></path><path d="M517,215.88c3.45-4.82,8.56-11.37,13-14.61" style="fill:none;stroke:#263238;stroke-linecap:round;stroke-linejoin:round"></path><path d="M513,221.73s.88-1.38,2.31-3.47" style="fill:none;stroke:#263238;stroke-linecap:round;stroke-linejoin:round"></path><path d="M532.46,202.27s6,7.48,7.48,15.47" style="fill:none;stroke:#263238;stroke-linecap:round;stroke-linejoin:round"></path><path d="M526.47,207.26s1.49-1,1.49,9" style="fill:none;stroke:#263238;stroke-linecap:round;stroke-linejoin:round"></path><path d="M530,197.78s3-3,1-8.49" style="fill:none;stroke:#263238;stroke-linecap:round;stroke-linejoin:round"></path><line x1="525.97" y1="202.77" x2="523.47" y2="198.78" style="fill:none;stroke:#263238;stroke-linecap:round;stroke-linejoin:round"></line><path d="M521.48,207.26s-7.49-5-12-5" style="fill:none;stroke:#263238;stroke-linecap:round;stroke-linejoin:round"></path><path d="M599.59,329.65s-5.49,4-9,0,1.5-12-3.49-15-13,2.5-13,2.5,6.48,1.49,6.48,5-3,5-3.49,3.49-4-9-9-5.49a12.87,12.87,0,0,0-5.49,8.49s12-2,13,2.49-5-.5-10-.5-9.48,1-9,4a39.29,39.29,0,0,1,0,8s4-4,9.48-4,5.49,3.49.5,3.49-9,5-9,5,5,7.49,11,11,8,2,8.48-1-1.5-10.48,2-10.48-5,13.47-.5,14,8-1,9-4l1-3s-2-7.49-1.5-10.48,1.5,0,2.5,3.49,2,12,3.49,11.48,6-7,7-9.48-7-9.48-7-11,6,1,7,2.49,2,3.5,2,3.5,3.5-2.5,3-9.49S599.59,329.65,599.59,329.65Z" style="fill:#90CAF9"></path><path d="M571.63,347.75c3.45-4.82,8.57-11.36,13-14.6" style="fill:none;stroke:#263238;stroke-linecap:round;stroke-linejoin:round"></path><path d="M567.65,353.61s.88-1.39,2.31-3.47" style="fill:none;stroke:#263238;stroke-linecap:round;stroke-linejoin:round"></path><path d="M587.11,334.14s6,7.49,7.49,15.47" style="fill:none;stroke:#263238;stroke-linecap:round;stroke-linejoin:round"></path><path d="M581.12,339.14s1.5-1,1.5,9" style="fill:none;stroke:#263238;stroke-linecap:round;stroke-linejoin:round"></path><path d="M584.62,329.65s3-3,1-8.48" style="fill:none;stroke:#263238;stroke-linecap:round;stroke-linejoin:round"></path><line x1="580.62" y1="334.64" x2="578.13" y2="330.65" style="fill:none;stroke:#263238;stroke-linecap:round;stroke-linejoin:round"></line><path d="M576.13,339.14s-7.48-5-12-5" style="fill:none;stroke:#263238;stroke-linecap:round;stroke-linejoin:round"></path><rect x="556.75" y="404.65" width="38.58" height="55.53" style="fill:#263238;stroke:#263238;stroke-linecap:round;stroke-linejoin:round;stroke-width:2px"></rect></g><g id="freepik--Furniture--inject-31"><rect x="67.76" y="379.03" width="283.9" height="81.14" style="fill:#fff;stroke:#263238;stroke-linecap:round;stroke-linejoin:round"></rect><rect x="108.93" y="379.03" width="274.36" height="81.14" style="fill:#c9c9c9;stroke:#263238;stroke-linecap:round;stroke-linejoin:round"></rect><polyline points="139.49 386.34 199.31 386.34 199.31 417.32 180.56 417.32" style="fill:none;stroke:#263238;stroke-linecap:round;stroke-linejoin:round"></polyline><polyline points="176.39 417.32 115.39 417.32 115.39 386.34 135.64 386.34" style="fill:none;stroke:#263238;stroke-linecap:round;stroke-linejoin:round"></polyline><polyline points="158.42 456.06 115.39 456.06 115.39 425.07 126.66 425.07" style="fill:none;stroke:#263238;stroke-linecap:round;stroke-linejoin:round"></polyline><polyline points="131.47 425.07 199.31 425.07 199.31 456.06 163.88 456.06" style="fill:none;stroke:#263238;stroke-linecap:round;stroke-linejoin:round"></polyline><polyline points="232.54 417.32 204.79 417.32 204.79 386.34 288.72 386.34 288.72 417.32 238.32 417.32" style="fill:none;stroke:#263238;stroke-linecap:round;stroke-linejoin:round"></polyline><polyline points="247.94 425.07 288.72 425.07 288.72 456.06 204.79 456.06 204.79 425.07 242.81 425.07" style="fill:none;stroke:#263238;stroke-linecap:round;stroke-linejoin:round"></polyline><polyline points="294.2 397.89 294.2 386.34 378.13 386.34 378.13 417.32 294.2 417.32 294.2 401.42" style="fill:none;stroke:#263238;stroke-linecap:round;stroke-linejoin:round"></polyline><polyline points="302.49 425.07 378.13 425.07 378.13 456.06 294.2 456.06 294.2 425.07 299.6 425.07" style="fill:none;stroke:#263238;stroke-linecap:round;stroke-linejoin:round"></polyline><path d="M112.13,358.65a20.46,20.46,0,1,1-35.2-14.17,19.46,19.46,0,0,1,2.78-2.42,11.87,11.87,0,0,0,4.83-9.64v-.71a55.14,55.14,0,0,0-3.13-18.31h20.53l-.16.46a55.13,55.13,0,0,0-3,17.86v.7a12,12,0,0,0,4.92,9.7A20.4,20.4,0,0,1,112.13,358.65Z" style="fill:#90CAF9;stroke:#263238;stroke-linecap:round;stroke-linejoin:round"></path><path d="M114.48,367.78a20.44,20.44,0,0,0,36.6,0Z" style="fill:#90CAF9;stroke:#263238;stroke-linecap:round;stroke-linejoin:round"></path><line x1="82.93" y1="317.78" x2="100.34" y2="317.78" style="fill:none;stroke:#263238;stroke-linecap:round;stroke-linejoin:round"></line><line x1="83.87" y1="323.58" x2="99.4" y2="323.58" style="fill:none;stroke:#263238;stroke-linecap:round;stroke-linejoin:round"></line><line x1="84.5" y1="329.38" x2="98.77" y2="329.38" style="fill:none;stroke:#263238;stroke-linecap:round;stroke-linejoin:round"></line><line x1="84.34" y1="335.19" x2="98.93" y2="335.19" style="fill:none;stroke:#263238;stroke-linecap:round;stroke-linejoin:round"></line><line x1="80.89" y1="340.99" x2="102.22" y2="340.99" style="fill:none;stroke:#263238;stroke-linecap:round;stroke-linejoin:round"></line><path d="M106.57,372.67a20.45,20.45,0,1,1-29.64-28.19C79,351.33,85.67,366.25,106.57,372.67Z" style="fill:#263238;stroke:#263238;stroke-linecap:round;stroke-linejoin:round"></path></g><g id="freepik--Table--inject-31"><path d="M232.48,358.12a39.39,39.39,0,0,0,70.52,0Z" style="fill:#90CAF9;stroke:#263238;stroke-linecap:round;stroke-linejoin:round"></path><path d="M358.21,378.05H261v82.13h97.31v-82C358.31,378.12,358.27,378.05,358.21,378.05ZM355,454.64H264.28V383.58h90.65c.05,0,.09.08.09.17Z" style="fill:#263238;stroke:#263238;stroke-linecap:round;stroke-linejoin:round"></path><path d="M290.75,378.05H193.53v82.13h97.31v-82C290.84,378.12,290.8,378.05,290.75,378.05Zm-3.19,76.59H196.82V383.58h90.64c.05,0,.1.08.1.17Z" style="fill:#263238;stroke:#263238;stroke-linecap:round;stroke-linejoin:round"></path><path d="M191.15,378.05h170a.18.18,0,0,1,.18.18v7.12a0,0,0,0,1,0,0H191.15a0,0,0,0,1,0,0v-7.29A0,0,0,0,1,191.15,378.05Z" style="fill:#fff;stroke:#263238;stroke-linecap:round;stroke-linejoin:round"></path><path d="M287.44,378.05h73.69a.18.18,0,0,1,.18.18v7.12a0,0,0,0,1,0,0H287.44a0,0,0,0,1,0,0v-7.29A0,0,0,0,1,287.44,378.05Z" style="fill:#263238;stroke:#263238;stroke-linecap:round;stroke-linejoin:round"></path></g><g id="freepik--TV--inject-31"><rect x="118.14" y="122.74" width="230.84" height="151.4" style="fill:#263238;stroke:#263238;stroke-linecap:round;stroke-linejoin:round"></rect><rect x="124.68" y="128.35" width="217.75" height="140.18" style="fill:#c9c9c9;stroke:#263238;stroke-linecap:round;stroke-linejoin:round"></rect><rect x="135.56" y="225.88" width="44.19" height="33.06" style="fill:#dbdbdb"></rect><rect x="187.61" y="225.88" width="44.19" height="33.06" style="fill:#dbdbdb"></rect><rect x="239.66" y="225.88" width="44.19" height="33.06" style="fill:#dbdbdb"></rect><rect x="291.71" y="225.88" width="44.19" height="33.06" style="fill:#dbdbdb"></rect><rect x="136.89" y="135.17" width="198.02" height="83.11" style="fill:#7a7a7a"></rect><rect x="136.89" y="212.5" width="198.02" height="5.78" style="fill:#a6a6a6"></rect><polygon points="252.52 177.09 232.63 165.61 232.63 188.57 252.52 177.09" style="fill:#dbdbdb"></polygon></g><g id="freepik--Speakers--inject-31"><rect x="61.2" y="136.98" width="28.29" height="95" style="fill:#263238;stroke:#263238;stroke-linecap:round;stroke-linejoin:round"></rect><rect x="66.03" y="136.98" width="28.29" height="95" style="fill:#263238;stroke:#263238;stroke-linecap:round;stroke-linejoin:round"></rect><circle cx="81.33" cy="149.47" r="9.26" transform="translate(-59.84 54.45) rotate(-27.5)" style="fill:#4f4f4f;stroke:#263238;stroke-linecap:round;stroke-linejoin:round"></circle><path d="M84.2,149.47a2.87,2.87,0,1,1-2.87-2.87A2.87,2.87,0,0,1,84.2,149.47Z" style="fill:#263238;stroke:#263238;stroke-linecap:round;stroke-linejoin:round"></path><circle cx="81.33" cy="170.86" r="9.26" style="fill:#4f4f4f;stroke:#263238;stroke-linecap:round;stroke-linejoin:round"></circle><circle cx="81.33" cy="170.86" r="2.87" style="fill:#263238;stroke:#263238;stroke-linecap:round;stroke-linejoin:round"></circle><circle cx="81.33" cy="193.91" r="9.26" transform="translate(-80.36 59.48) rotate(-27.5)" style="fill:#4f4f4f;stroke:#263238;stroke-linecap:round;stroke-linejoin:round"></circle><path d="M84.2,193.91A2.87,2.87,0,1,1,81.33,191,2.87,2.87,0,0,1,84.2,193.91Z" style="fill:#263238;stroke:#263238;stroke-linecap:round;stroke-linejoin:round"></path><circle cx="81.33" cy="215.3" r="9.26" style="fill:#4f4f4f;stroke:#263238;stroke-linecap:round;stroke-linejoin:round"></circle><path d="M84.2,215.3a2.87,2.87,0,1,1-2.87-2.87A2.87,2.87,0,0,1,84.2,215.3Z" style="fill:#263238;stroke:#263238;stroke-linecap:round;stroke-linejoin:round"></path><rect x="360.11" y="136.98" width="28.29" height="95" style="fill:#263238;stroke:#263238;stroke-linecap:round;stroke-linejoin:round"></rect><rect x="364.95" y="136.98" width="28.29" height="95" style="fill:#263238;stroke:#263238;stroke-linecap:round;stroke-linejoin:round"></rect><circle cx="380.24" cy="149.47" r="9.26" transform="translate(-28.27 155.94) rotate(-22.37)" style="fill:#4f4f4f;stroke:#263238;stroke-linecap:round;stroke-linejoin:round"></circle><path d="M383.12,149.47a2.88,2.88,0,1,1-2.88-2.87A2.88,2.88,0,0,1,383.12,149.47Z" style="fill:#263238;stroke:#263238;stroke-linecap:round;stroke-linejoin:round"></path><circle cx="380.24" cy="170.86" r="9.26" style="fill:#4f4f4f;stroke:#263238;stroke-linecap:round;stroke-linejoin:round"></circle><circle cx="380.24" cy="170.86" r="2.87" style="fill:#263238;stroke:#263238;stroke-linecap:round;stroke-linejoin:round"></circle><circle cx="380.24" cy="193.91" r="9.26" transform="translate(-45.18 159.28) rotate(-22.37)" style="fill:#4f4f4f;stroke:#263238;stroke-linecap:round;stroke-linejoin:round"></circle><path d="M383.12,193.91a2.88,2.88,0,1,1-2.88-2.87A2.88,2.88,0,0,1,383.12,193.91Z" style="fill:#263238;stroke:#263238;stroke-linecap:round;stroke-linejoin:round"></path><circle cx="380.24" cy="215.3" r="9.26" style="fill:#4f4f4f;stroke:#263238;stroke-linecap:round;stroke-linejoin:round"></circle><path d="M383.12,215.3a2.88,2.88,0,1,1-2.88-2.87A2.88,2.88,0,0,1,383.12,215.3Z" style="fill:#263238;stroke:#263238;stroke-linecap:round;stroke-linejoin:round"></path><rect x="143.37" y="285.36" width="177.57" height="17.76" rx="3.08" style="fill:#263238;stroke:#263238;stroke-linecap:round;stroke-linejoin:round"></rect><path d="M149.68,303.11H318.16v-5.55H149.68Z" style="fill:#c9c9c9;stroke:#263238;stroke-linecap:round;stroke-linejoin:round"></path><rect x="157.03" y="334.04" width="37.45" height="44.38" style="fill:#263238;stroke:#263238;stroke-linecap:round;stroke-linejoin:round"></rect><rect x="166.66" y="334.04" width="37.45" height="44.38" style="fill:#263238;stroke:#263238;stroke-linecap:round;stroke-linejoin:round"></rect><circle cx="187.19" cy="346.54" r="9.26" style="fill:#4f4f4f;stroke:#263238;stroke-linecap:round;stroke-linejoin:round"></circle><path d="M190.07,346.54a2.88,2.88,0,1,1-2.88-2.87A2.87,2.87,0,0,1,190.07,346.54Z" style="fill:#263238;stroke:#263238;stroke-linecap:round;stroke-linejoin:round"></path><circle cx="187.19" cy="367.93" r="9.26" style="fill:#4f4f4f;stroke:#263238;stroke-linecap:round;stroke-linejoin:round"></circle><circle cx="187.19" cy="367.93" r="2.87" style="fill:#263238;stroke:#263238;stroke-linecap:round;stroke-linejoin:round"></circle></g><g id="freepik--Characters--inject-31"><path d="M533.24,219.79s-7,7.94-7,10.16-1.91,4.44-1.91,4.44-7.62,7.94-6.66,9.84a5.85,5.85,0,0,0,3.49,2.54s-4.76,15.24-1.91,17.15,11.11-.32,11.11-.32l-.31,12.7s11.11-4.76,18.09-2.86l7,1.9s-1-10.79.31-12.69,15.88-8.89,17.78-19,1-20.32-9.2-26-16.51-6.35-16.51-6.35,3.49-5.72-1-7-16.19,2.86-16.82,8.26A6.92,6.92,0,0,0,533.24,219.79Z" style="fill:#fff;stroke:#263238;stroke-linecap:round;stroke-linejoin:round"></path><path d="M519.27,263.92a46.85,46.85,0,0,0,6.15-1.9,74.84,74.84,0,0,0,7.39-3.1L530.75,271l-.37-7.37S522.08,266.16,519.27,263.92Z" style="fill:#263238;stroke:#263238;stroke-linecap:round;stroke-linejoin:round"></path><path d="M529,235.59c-.35,1.37-1.2,2.35-1.88,2.17s-1-1.43-.61-2.8,1.19-2.35,1.87-2.17S529.38,234.22,529,235.59Z" style="fill:#263238"></path><path d="M526.26,230s3.81-3.81,5.08.32" style="fill:none;stroke:#263238;stroke-linecap:round;stroke-linejoin:round"></path><path d="M522.45,250.58s5.08-1,7.93-4.76" style="fill:none;stroke:#263238;stroke-linecap:round;stroke-linejoin:round"></path><path d="M573.56,295.34s-7-14.28-14.6-19-18.42-6-29.53-2.23-19.68,20.64-20.95,25.4a50.07,50.07,0,0,1-4.13,9.84h70.8Z" style="fill:#90CAF9;stroke:#263238;stroke-linecap:round;stroke-linejoin:round"></path><path d="M573.24,243.6c1.91-10.16,1-20.32-9.2-26s-16.51-6.35-16.51-6.35,3.49-5.72-1-7-16.19,2.86-16.82,8.26a6.92,6.92,0,0,0,3.49,7.3s5.08,2.22,7.3,2.22-4.44,5.4-4.44,7.94,5.71,5.39,5.71,5.39-4.76,7.31-2.85,8.89,4.12,1.59,5.08.32,6.66-9.52,9.52-4.76-1.59,12.38-3.49,13.65-6.35,1.9-6.35,1.9,4.46,8.11,11.12,10.88a8.54,8.54,0,0,1,.62-3.57C556.73,260.74,571.34,253.76,573.24,243.6Z" style="fill:#263238;stroke:#263238;stroke-linecap:round;stroke-linejoin:round"></path><path d="M367,264l25,21.66a1.54,1.54,0,0,0,1.33.34l3.42-.74a1.54,1.54,0,0,0,.68-2.66l-24.86-21.51a1.52,1.52,0,0,0-1.26-.35l-3.55.59A1.53,1.53,0,0,0,367,264Z" style="fill:#263238;stroke:#263238;stroke-linecap:round;stroke-linejoin:round"></path><path d="M406.25,318.58,394.1,285.25s-.62-3.74-1.25-4.68-1.87-3.11-1.87-3.11-1.86-7.48-2.8-7.48a3.34,3.34,0,0,0-2.8,1.87c-.63,1.25-.63,6.86-.63,6.86L377,272.48s-.94,4.67-.94,5.91,3.43,3.43,3.43,4.68,1.56,4.36,3.11,5.6,5.61,2.19,5.61,2.19l2.49,32.39L407.5,322Z" style="fill:#fff;stroke:#263238;stroke-linecap:round;stroke-linejoin:round"></path><path d="M400.18,301.93a18.77,18.77,0,0,0-10.94,2.65l1.43,18.67L407.5,322l-1.25-3.43Z" style="fill:#90CAF9;stroke:#263238;stroke-linecap:round;stroke-linejoin:round"></path><path d="M460.86,223.28s-5.08,7.62-5.08,9.84-1.9,3.49-3.17,4.76-5.4.64-5.4,3.81,4.13,8.89,4.13,8.89-.95,9.84,1,13.34S464,266.46,464,266.46l2.54,14s12.69-3.49,15.87-3.49h7.62L489.43,262s4.13-5.4,4.13-15.87-19.05-24.76-23.49-25.4S460.86,223.28,460.86,223.28Z" style="fill:#fff;stroke:#263238;stroke-linecap:round;stroke-linejoin:round"></path><path d="M454,265.29a34.73,34.73,0,0,0,5.33-.69c3.78-.69,6.71-3.09,6.88-3.61s-1.2,10.49-1.2,10.49l-1-5S455.92,267.53,454,265.29Z" style="fill:#263238;stroke:#263238;stroke-linecap:round;stroke-linejoin:round"></path><path d="M452.29,252.81s3.49,1.27,4.44-1.27" style="fill:none;stroke:#263238;stroke-linecap:round;stroke-linejoin:round"></path><path d="M457.66,238.28c-.32,1.27-1,2.2-1.51,2.07s-.66-1.27-.34-2.54,1-2.2,1.51-2.08S458,237,457.66,238.28Z" style="fill:#263238"></path><path d="M455.78,233.12s2.54-2.54,3.49,1" style="fill:none;stroke:#263238;stroke-linecap:round;stroke-linejoin:round"></path><path d="M493.24,275.34s-10.79-3.49-20.63,0a219.56,219.56,0,0,0-26.67,11.75c-3.81,2.22-9.21,5.71-10.16,8.57s-2.22,12.07-2.22,12.07h78.73s-5.08-26.35-9.52-29.21A22.34,22.34,0,0,0,493.24,275.34Z" style="fill:#90CAF9;stroke:#263238;stroke-linecap:round;stroke-linejoin:round"></path><path d="M404.69,310.48,374.79,312s-38.63-9-44.86-8.41-1.25,15.26-1.56,23.05.93,20.87.93,20.87H405Z" style="fill:#90CAF9;stroke:#263238;stroke-linecap:round;stroke-linejoin:round"></path><path d="M340.28,307.61c6.23,1.13,14.05,2.72,17.37,4.12,5.92,2.49,15.58,5.6,15.58,5.6s21.18-3.11,28-3.73" style="fill:none;stroke:#263238;stroke-linecap:round;stroke-linejoin:round"></path><path d="M331.48,306.12s2.13.33,5.22.86" style="fill:none;stroke:#263238;stroke-linecap:round;stroke-linejoin:round"></path><path d="M439,290.54s-34-2.18-35.2,2.18-2.18,52.65-2.18,52.65h128l0-50s-.62-1.25-4-1.25-31.51.77-31.51.77Z" style="fill:#fff;stroke:#263238;stroke-linecap:round;stroke-linejoin:round"></path><path d="M417.46,299.58c-2,1.42-6.33,39.34-7.06,45.79H529.61l0-49.12c-9.08,1.4-34,3.95-42.42,3.95C478.21,300.2,419.64,298,417.46,299.58Z" style="fill:#c9c9c9;stroke:#263238;stroke-linecap:round;stroke-linejoin:round"></path><path d="M541.76,294s78.28-4.36,86.69-4.36,9.66,2.49,11.22,5.61a14.42,14.42,0,0,1,1.24,7.16c0,.94-8.1,31.78-8.1,31.78H523.38l1.87-39.88Z" style="fill:#fff;stroke:#263238;stroke-linecap:round;stroke-linejoin:round"></path><path d="M640.91,302.38S640,299,636.55,299c-3.18,0-99.25,1.88-111.64,2.65l-1.53,32.56H632.81S640.91,303.32,640.91,302.38Z" style="fill:#c9c9c9;stroke:#263238;stroke-linecap:round;stroke-linejoin:round"></path><path d="M308.92,341.65H645a6.49,6.49,0,0,1,6.49,6.49v112a0,0,0,0,1,0,0H302.6a0,0,0,0,1,0,0V348A6.31,6.31,0,0,1,308.92,341.65Z" style="fill:#fff;stroke:#263238;stroke-linecap:round;stroke-linejoin:round"></path><path d="M425.26,312.19h199a0,0,0,0,1,0,0v45.74a0,0,0,0,1,0,0H420.07a0,0,0,0,1,0,0V317.38A5.2,5.2,0,0,1,425.26,312.19Z" style="fill:#fff;stroke:#263238;stroke-linecap:round;stroke-linejoin:round"></path><path d="M633.47,341.65V318.36a6.17,6.17,0,0,0-6.17-6.17H434.16A4.86,4.86,0,0,0,429.3,317v24.61H406.78A4.75,4.75,0,0,0,402,346.4V460.18H652V347.72a6.07,6.07,0,0,0-6.07-6.07Z" style="fill:#263238;stroke:#263238;stroke-linecap:round;stroke-linejoin:round"></path><path d="M557.05,281.84a15.09,15.09,0,0,0-14.92-8.57c-11.11.63-12.06,7.3-14.29,14.29s-4.44,20.95-4.44,20.95-44.76-15.88-46.35-16.83-5.71-5.08-8.89-7.93a10.58,10.58,0,0,0-10.79-1.91c-3.18,1.27-10.79,6.35-12.38,7.62s-1.59,1.9.32,2.22,10.15.32,10.15.32,5.72,1.27,8.58,3.49,8.57,2.86,8.57,2.86,20.31,16.19,28.89,22.54S527.21,338,531.34,338s9.52,0,10.79-3.17,14.92-45.72,14.92-45.72" style="fill:#fff;stroke:#263238;stroke-linecap:round;stroke-linejoin:round"></path><path d="M557.05,281.84c-1.29-2.3-6-9.08-14.92-8.57-11.11.63-12.06,7.3-14.29,14.29-.88,2.76-1.76,6.63-2.5,10.29,2.64-1.33,7.08-2.46,13.93-1.09a27.73,27.73,0,0,1,13.3,6.31c2-6.15,4.37-13.34,5-15.22" style="fill:#90CAF9;stroke:#263238;stroke-linecap:round;stroke-linejoin:round"></path><line x1="538.72" y1="312.71" x2="541.53" y2="313.5" style="fill:#fff;stroke:#263238;stroke-linecap:round;stroke-linejoin:round"></line><line x1="523.89" y1="308.55" x2="536.95" y2="312.22" style="fill:#fff;stroke:#263238;stroke-linecap:round;stroke-linejoin:round"></line><path d="M470.7,209.63s-12.06,0-13.33,4.45,8.57,27.3,10.48,29.52,5.07,13,9.2,16.19a33.82,33.82,0,0,0,9.21,4.76s4.12,7.3,0,14.92-13,11.11-13.65,26.35S484,328,490.38,329.31s12.07-4.76,12.07-4.76-6.67-.32-3.18-6.35,14-5.71,14.29-20.32-7-22.85-12.06-25.71-9.21-8.57-9.21-8.57,9.21-6.35,12.7-15.24,4.44-20.32-1.27-30.48c-3.14-5.57-9.29-8.56-15.38-9.66C481.93,207.06,476.8,209.63,470.7,209.63Z" style="fill:#263238;stroke:#263238;stroke-linecap:round;stroke-linejoin:round"></path><path d="M467.53,246.46s3.17-7.31,7-5.08.32,12.38-1.9,13.33-4.13-1.59-4.13-1.59" style="fill:#fff;stroke:#263238;stroke-linecap:round;stroke-linejoin:round"></path><line x1="29.56" y1="460.18" x2="687.68" y2="460.18" style="fill:#fff;stroke:#263238;stroke-linecap:round;stroke-linejoin:round;stroke-width:2px"></line></g></svg>